# Blender 4.4.3
# www.blender.org
o Cylinder
v 0.000000 0.000000 -1.000000
v 0.000000 1.147729 0.000000
v 0.866025 0.000000 0.500000
v -0.866025 0.000000 0.500000
vn 0.7940 0.3994 -0.4584
vn -0.0000 0.3994 0.9168
vn -0.7940 0.3994 -0.4584
vn -0.0000 -1.0000 -0.0000
vt 1.000000 0.500000
vt 0.666667 1.000000
vt 0.666667 0.500000
vt 0.333333 1.000000
vt 0.333333 0.500000
vt -0.000000 1.000000
vt -0.000000 0.500000
vt 0.750000 0.490000
vt 0.957846 0.130000
vt 0.542154 0.130000
s 0
f 1/1/1 2/2/1 3/3/1
f 3/3/2 2/4/2 4/5/2
f 4/5/3 2/6/3 1/7/3
f 1/8/4 3/9/4 4/10/4
